<svg width="148" height="148" viewBox="0 0 148 148" fill="none" xmlns="http://www.w3.org/2000/svg">
<rect width="148" height="148" rx="8" fill="black"/>
<line x1="16" y1="30" x2="128" y2="30" stroke="white" stroke-width="4" stroke-linecap="round"/>
<line x1="22" y1="40" x2="121" y2="40" stroke="white" stroke-width="4" stroke-linecap="round"/>
<line x1="28" y1="50" x2="115" y2="50" stroke="white" stroke-width="4" stroke-linecap="round"/>
<line x1="34" y1="60" x2="109" y2="60" stroke="white" stroke-width="4" stroke-linecap="round"/>
<line x1="39.5" y1="69.5" x2="103.5" y2="69.5" stroke="white" stroke-width="3" stroke-linecap="round"/>
<line x1="45.5" y1="78.5" x2="98.5" y2="78.5" stroke="white" stroke-width="3" stroke-linecap="round"/>
<line x1="49.5" y1="86.5" x2="93.5" y2="86.5" stroke="white" stroke-width="3" stroke-linecap="round"/>
<line x1="53.5" y1="94.5" x2="89.5" y2="94.5" stroke="white" stroke-width="3" stroke-linecap="round"/>
<line x1="57.5" y1="101.5" x2="85.5" y2="101.5" stroke="white" stroke-width="3" stroke-linecap="round"/>
<line x1="61.5" y1="108.5" x2="82.5" y2="108.5" stroke="white" stroke-width="3" stroke-linecap="round"/>
<line x1="64.5" y1="114.5" x2="78.5" y2="114.5" stroke="white" stroke-width="3" stroke-linecap="round"/>
<line x1="67.5" y1="119.5" x2="75.5" y2="119.5" stroke="white" stroke-width="3" stroke-linecap="round"/>
<line x1="70.5" y1="123.5" x2="72.5" y2="123.5" stroke="white" stroke-width="3" stroke-linecap="round"/>
<line x1="71" y1="128" x2="72" y2="128" stroke="white" stroke-width="2" stroke-linecap="round"/>
</svg>
